<mxfile host="app.diagrams.net" agent="Mozilla/5.0 (Windows NT 10.0; Win64; x64) AppleWebKit/537.36 (KHTML, like Gecko) Chrome/134.0.0.0 Safari/537.36 OPR/119.0.0.0" version="27.0.4">
  <diagram name="Página-1" id="1y8P2CDbdtnNZviRdfFL">
    <mxGraphModel dx="1624" dy="834" grid="1" gridSize="10" guides="1" tooltips="1" connect="1" arrows="1" fold="1" page="1" pageScale="1" pageWidth="1920" pageHeight="1200" math="0" shadow="0">
      <root>
        <mxCell id="0" />
        <mxCell id="1" parent="0" />
        <mxCell id="hESRGJhJiUW9HwsKIZmo-29" value="Caso de uso:&lt;br&gt;Adicionar consumo de Objeto&lt;br&gt;(4.2)" style="swimlane;fontStyle=0;align=center;verticalAlign=top;childLayout=stackLayout;horizontal=1;startSize=55;horizontalStack=0;resizeParent=1;resizeParentMax=0;resizeLast=0;collapsible=0;marginBottom=0;html=1;whiteSpace=wrap;" parent="1" vertex="1">
          <mxGeometry x="480" y="60" width="280" height="190" as="geometry" />
        </mxCell>
        <mxCell id="hESRGJhJiUW9HwsKIZmo-30" value="&lt;span style=&quot;&quot;&gt;Atores: Usuario&lt;/span&gt;" style="text;html=1;strokeColor=none;fillColor=none;align=left;verticalAlign=middle;spacingLeft=4;spacingRight=4;overflow=hidden;rotatable=0;points=[[0,0.5],[1,0.5]];portConstraint=eastwest;whiteSpace=wrap;" parent="hESRGJhJiUW9HwsKIZmo-29" vertex="1">
          <mxGeometry y="55" width="280" height="20" as="geometry" />
        </mxCell>
        <mxCell id="hESRGJhJiUW9HwsKIZmo-31" value="Tipo: Primario" style="text;html=1;strokeColor=none;fillColor=none;align=left;verticalAlign=middle;spacingLeft=4;spacingRight=4;overflow=hidden;rotatable=0;points=[[0,0.5],[1,0.5]];portConstraint=eastwest;whiteSpace=wrap;" parent="hESRGJhJiUW9HwsKIZmo-29" vertex="1">
          <mxGeometry y="75" width="280" height="20" as="geometry" />
        </mxCell>
        <mxCell id="hESRGJhJiUW9HwsKIZmo-34" value="" style="line;strokeWidth=1;fillColor=none;align=left;verticalAlign=middle;spacingTop=-1;spacingLeft=3;spacingRight=3;rotatable=0;labelPosition=right;points=[];portConstraint=eastwest;" parent="hESRGJhJiUW9HwsKIZmo-29" vertex="1">
          <mxGeometry y="95" width="280" height="8" as="geometry" />
        </mxCell>
        <mxCell id="hESRGJhJiUW9HwsKIZmo-36" value="&lt;br&gt;Descrição: O consumo em KW/H (e o valor do KW/H)&amp;nbsp; de cada objeto na casa e a quantiade de horas que o mesmo funciona por dia (ou se funciona em tempo integral) são informados pelo usuário&lt;div&gt;&lt;br&gt;&lt;/div&gt;" style="text;html=1;strokeColor=none;fillColor=none;align=left;verticalAlign=middle;spacingLeft=4;spacingRight=4;overflow=hidden;rotatable=0;points=[[0,0.5],[1,0.5]];portConstraint=eastwest;whiteSpace=wrap;" parent="hESRGJhJiUW9HwsKIZmo-29" vertex="1">
          <mxGeometry y="103" width="280" height="87" as="geometry" />
        </mxCell>
        <mxCell id="hESRGJhJiUW9HwsKIZmo-42" value="Caso de uso:&lt;br&gt;Adicionar atividade no Calendario&lt;br&gt;(4.3)" style="swimlane;fontStyle=0;align=center;verticalAlign=top;childLayout=stackLayout;horizontal=1;startSize=55;horizontalStack=0;resizeParent=1;resizeParentMax=0;resizeLast=0;collapsible=0;marginBottom=0;html=1;whiteSpace=wrap;" parent="1" vertex="1">
          <mxGeometry x="840" y="60" width="280" height="190" as="geometry" />
        </mxCell>
        <mxCell id="hESRGJhJiUW9HwsKIZmo-43" value="&lt;span style=&quot;&quot;&gt;Atores:&amp;nbsp;&lt;/span&gt;Usuário" style="text;html=1;strokeColor=none;fillColor=none;align=left;verticalAlign=middle;spacingLeft=4;spacingRight=4;overflow=hidden;rotatable=0;points=[[0,0.5],[1,0.5]];portConstraint=eastwest;whiteSpace=wrap;" parent="hESRGJhJiUW9HwsKIZmo-42" vertex="1">
          <mxGeometry y="55" width="280" height="20" as="geometry" />
        </mxCell>
        <mxCell id="hESRGJhJiUW9HwsKIZmo-44" value="Tipo: Primário" style="text;html=1;strokeColor=none;fillColor=none;align=left;verticalAlign=middle;spacingLeft=4;spacingRight=4;overflow=hidden;rotatable=0;points=[[0,0.5],[1,0.5]];portConstraint=eastwest;whiteSpace=wrap;" parent="hESRGJhJiUW9HwsKIZmo-42" vertex="1">
          <mxGeometry y="75" width="280" height="20" as="geometry" />
        </mxCell>
        <mxCell id="hESRGJhJiUW9HwsKIZmo-45" value="" style="line;strokeWidth=1;fillColor=none;align=left;verticalAlign=middle;spacingTop=-1;spacingLeft=3;spacingRight=3;rotatable=0;labelPosition=right;points=[];portConstraint=eastwest;" parent="hESRGJhJiUW9HwsKIZmo-42" vertex="1">
          <mxGeometry y="95" width="280" height="8" as="geometry" />
        </mxCell>
        <mxCell id="hESRGJhJiUW9HwsKIZmo-46" value="Descrição: É inserida uma nova atividade e quanto a notificação precisa ser disparada. O sistema registra a atividade e a armazena para futura consulta e edição." style="text;html=1;strokeColor=none;fillColor=none;align=left;verticalAlign=middle;spacingLeft=4;spacingRight=4;overflow=hidden;rotatable=0;points=[[0,0.5],[1,0.5]];portConstraint=eastwest;whiteSpace=wrap;" parent="hESRGJhJiUW9HwsKIZmo-42" vertex="1">
          <mxGeometry y="103" width="280" height="87" as="geometry" />
        </mxCell>
        <mxCell id="hESRGJhJiUW9HwsKIZmo-58" value="Caso de uso:&lt;br&gt;Excluir Atividade Existente&lt;br&gt;(4.4)" style="swimlane;fontStyle=0;align=center;verticalAlign=top;childLayout=stackLayout;horizontal=1;startSize=55;horizontalStack=0;resizeParent=1;resizeParentMax=0;resizeLast=0;collapsible=0;marginBottom=0;html=1;whiteSpace=wrap;" parent="1" vertex="1">
          <mxGeometry x="120" y="530" width="280" height="190" as="geometry" />
        </mxCell>
        <mxCell id="hESRGJhJiUW9HwsKIZmo-59" value="&lt;span style=&quot;&quot;&gt;Atores: Usuario&lt;/span&gt;" style="text;html=1;strokeColor=none;fillColor=none;align=left;verticalAlign=middle;spacingLeft=4;spacingRight=4;overflow=hidden;rotatable=0;points=[[0,0.5],[1,0.5]];portConstraint=eastwest;whiteSpace=wrap;" parent="hESRGJhJiUW9HwsKIZmo-58" vertex="1">
          <mxGeometry y="55" width="280" height="20" as="geometry" />
        </mxCell>
        <mxCell id="hESRGJhJiUW9HwsKIZmo-60" value="Tipo: Primario" style="text;html=1;strokeColor=none;fillColor=none;align=left;verticalAlign=middle;spacingLeft=4;spacingRight=4;overflow=hidden;rotatable=0;points=[[0,0.5],[1,0.5]];portConstraint=eastwest;whiteSpace=wrap;" parent="hESRGJhJiUW9HwsKIZmo-58" vertex="1">
          <mxGeometry y="75" width="280" height="20" as="geometry" />
        </mxCell>
        <mxCell id="hESRGJhJiUW9HwsKIZmo-61" value="" style="line;strokeWidth=1;fillColor=none;align=left;verticalAlign=middle;spacingTop=-1;spacingLeft=3;spacingRight=3;rotatable=0;labelPosition=right;points=[];portConstraint=eastwest;" parent="hESRGJhJiUW9HwsKIZmo-58" vertex="1">
          <mxGeometry y="95" width="280" height="8" as="geometry" />
        </mxCell>
        <mxCell id="hESRGJhJiUW9HwsKIZmo-62" value="Descrição: A atividade especificada é excluída e registrada como tal." style="text;html=1;strokeColor=none;fillColor=none;align=left;verticalAlign=middle;spacingLeft=4;spacingRight=4;overflow=hidden;rotatable=0;points=[[0,0.5],[1,0.5]];portConstraint=eastwest;whiteSpace=wrap;" parent="hESRGJhJiUW9HwsKIZmo-58" vertex="1">
          <mxGeometry y="103" width="280" height="87" as="geometry" />
        </mxCell>
        <mxCell id="hESRGJhJiUW9HwsKIZmo-63" value="Caso de uso:&lt;br&gt;Edição das atividades Existentes&lt;br&gt;(4.5)" style="swimlane;fontStyle=0;align=center;verticalAlign=top;childLayout=stackLayout;horizontal=1;startSize=55;horizontalStack=0;resizeParent=1;resizeParentMax=0;resizeLast=0;collapsible=0;marginBottom=0;html=1;whiteSpace=wrap;" parent="1" vertex="1">
          <mxGeometry x="480" y="530" width="280" height="190" as="geometry" />
        </mxCell>
        <mxCell id="hESRGJhJiUW9HwsKIZmo-64" value="&lt;span style=&quot;&quot;&gt;Atores: Usuario&lt;/span&gt;" style="text;html=1;strokeColor=none;fillColor=none;align=left;verticalAlign=middle;spacingLeft=4;spacingRight=4;overflow=hidden;rotatable=0;points=[[0,0.5],[1,0.5]];portConstraint=eastwest;whiteSpace=wrap;" parent="hESRGJhJiUW9HwsKIZmo-63" vertex="1">
          <mxGeometry y="55" width="280" height="20" as="geometry" />
        </mxCell>
        <mxCell id="hESRGJhJiUW9HwsKIZmo-65" value="Tipo: Primario" style="text;html=1;strokeColor=none;fillColor=none;align=left;verticalAlign=middle;spacingLeft=4;spacingRight=4;overflow=hidden;rotatable=0;points=[[0,0.5],[1,0.5]];portConstraint=eastwest;whiteSpace=wrap;" parent="hESRGJhJiUW9HwsKIZmo-63" vertex="1">
          <mxGeometry y="75" width="280" height="20" as="geometry" />
        </mxCell>
        <mxCell id="hESRGJhJiUW9HwsKIZmo-66" value="" style="line;strokeWidth=1;fillColor=none;align=left;verticalAlign=middle;spacingTop=-1;spacingLeft=3;spacingRight=3;rotatable=0;labelPosition=right;points=[];portConstraint=eastwest;" parent="hESRGJhJiUW9HwsKIZmo-63" vertex="1">
          <mxGeometry y="95" width="280" height="8" as="geometry" />
        </mxCell>
        <mxCell id="hESRGJhJiUW9HwsKIZmo-67" value="Descrição: A atividade especificada é editada, nome, descrição ou horário, e registrada como tal." style="text;html=1;strokeColor=none;fillColor=none;align=left;verticalAlign=middle;spacingLeft=4;spacingRight=4;overflow=hidden;rotatable=0;points=[[0,0.5],[1,0.5]];portConstraint=eastwest;whiteSpace=wrap;" parent="hESRGJhJiUW9HwsKIZmo-63" vertex="1">
          <mxGeometry y="103" width="280" height="87" as="geometry" />
        </mxCell>
        <mxCell id="8u0TkjSVdYfdCv28wPhr-1" value="Caso de uso:&lt;br&gt;Adicionar Contas Fixas" style="swimlane;fontStyle=0;align=center;verticalAlign=top;childLayout=stackLayout;horizontal=1;startSize=55;horizontalStack=0;resizeParent=1;resizeParentMax=0;resizeLast=0;collapsible=0;marginBottom=0;html=1;whiteSpace=wrap;" parent="1" vertex="1">
          <mxGeometry x="840" y="530" width="280" height="190" as="geometry" />
        </mxCell>
        <mxCell id="8u0TkjSVdYfdCv28wPhr-2" value="&lt;span style=&quot;&quot;&gt;Atores: Usuario&lt;/span&gt;" style="text;html=1;strokeColor=none;fillColor=none;align=left;verticalAlign=middle;spacingLeft=4;spacingRight=4;overflow=hidden;rotatable=0;points=[[0,0.5],[1,0.5]];portConstraint=eastwest;whiteSpace=wrap;" parent="8u0TkjSVdYfdCv28wPhr-1" vertex="1">
          <mxGeometry y="55" width="280" height="20" as="geometry" />
        </mxCell>
        <mxCell id="8u0TkjSVdYfdCv28wPhr-3" value="Tipo: Primario" style="text;html=1;strokeColor=none;fillColor=none;align=left;verticalAlign=middle;spacingLeft=4;spacingRight=4;overflow=hidden;rotatable=0;points=[[0,0.5],[1,0.5]];portConstraint=eastwest;whiteSpace=wrap;" parent="8u0TkjSVdYfdCv28wPhr-1" vertex="1">
          <mxGeometry y="75" width="280" height="20" as="geometry" />
        </mxCell>
        <mxCell id="8u0TkjSVdYfdCv28wPhr-4" value="" style="line;strokeWidth=1;fillColor=none;align=left;verticalAlign=middle;spacingTop=-1;spacingLeft=3;spacingRight=3;rotatable=0;labelPosition=right;points=[];portConstraint=eastwest;" parent="8u0TkjSVdYfdCv28wPhr-1" vertex="1">
          <mxGeometry y="95" width="280" height="8" as="geometry" />
        </mxCell>
        <mxCell id="8u0TkjSVdYfdCv28wPhr-5" value="&lt;br&gt;Descrição: Adiciona contas fixas (aluguel, condômino), métodos caso hajam divisões (como rateios) e vencimento da conta&lt;div&gt;&lt;br&gt;&lt;/div&gt;" style="text;html=1;strokeColor=none;fillColor=none;align=left;verticalAlign=middle;spacingLeft=4;spacingRight=4;overflow=hidden;rotatable=0;points=[[0,0.5],[1,0.5]];portConstraint=eastwest;whiteSpace=wrap;" parent="8u0TkjSVdYfdCv28wPhr-1" vertex="1">
          <mxGeometry y="103" width="280" height="87" as="geometry" />
        </mxCell>
        <mxCell id="8u0TkjSVdYfdCv28wPhr-6" value="Caso de uso:&lt;br&gt;Edição Contas" style="swimlane;fontStyle=0;align=center;verticalAlign=top;childLayout=stackLayout;horizontal=1;startSize=55;horizontalStack=0;resizeParent=1;resizeParentMax=0;resizeLast=0;collapsible=0;marginBottom=0;html=1;whiteSpace=wrap;" parent="1" vertex="1">
          <mxGeometry x="120" y="950" width="280" height="190" as="geometry" />
        </mxCell>
        <mxCell id="8u0TkjSVdYfdCv28wPhr-7" value="&lt;span style=&quot;&quot;&gt;Atores: Usuario&lt;/span&gt;" style="text;html=1;strokeColor=none;fillColor=none;align=left;verticalAlign=middle;spacingLeft=4;spacingRight=4;overflow=hidden;rotatable=0;points=[[0,0.5],[1,0.5]];portConstraint=eastwest;whiteSpace=wrap;" parent="8u0TkjSVdYfdCv28wPhr-6" vertex="1">
          <mxGeometry y="55" width="280" height="20" as="geometry" />
        </mxCell>
        <mxCell id="8u0TkjSVdYfdCv28wPhr-8" value="Tipo: Primario" style="text;html=1;strokeColor=none;fillColor=none;align=left;verticalAlign=middle;spacingLeft=4;spacingRight=4;overflow=hidden;rotatable=0;points=[[0,0.5],[1,0.5]];portConstraint=eastwest;whiteSpace=wrap;" parent="8u0TkjSVdYfdCv28wPhr-6" vertex="1">
          <mxGeometry y="75" width="280" height="20" as="geometry" />
        </mxCell>
        <mxCell id="8u0TkjSVdYfdCv28wPhr-9" value="" style="line;strokeWidth=1;fillColor=none;align=left;verticalAlign=middle;spacingTop=-1;spacingLeft=3;spacingRight=3;rotatable=0;labelPosition=right;points=[];portConstraint=eastwest;" parent="8u0TkjSVdYfdCv28wPhr-6" vertex="1">
          <mxGeometry y="95" width="280" height="8" as="geometry" />
        </mxCell>
        <mxCell id="8u0TkjSVdYfdCv28wPhr-10" value="Descrição: Conta especifica é editada, nome, descrição ou vencimento, e registrada como tal." style="text;html=1;strokeColor=none;fillColor=none;align=left;verticalAlign=middle;spacingLeft=4;spacingRight=4;overflow=hidden;rotatable=0;points=[[0,0.5],[1,0.5]];portConstraint=eastwest;whiteSpace=wrap;" parent="8u0TkjSVdYfdCv28wPhr-6" vertex="1">
          <mxGeometry y="103" width="280" height="87" as="geometry" />
        </mxCell>
        <mxCell id="aNvYWBEo9Q4qiZTx3_CM-23" value="Ação do Ator" style="swimlane;fontStyle=0;childLayout=stackLayout;horizontal=1;startSize=30;horizontalStack=0;resizeParent=1;resizeParentMax=0;resizeLast=0;collapsible=1;marginBottom=0;whiteSpace=wrap;html=1;" parent="1" vertex="1">
          <mxGeometry x="480" y="290" width="130" height="100" as="geometry">
            <mxRectangle x="470" y="70" width="60" height="30" as="alternateBounds" />
          </mxGeometry>
        </mxCell>
        <mxCell id="aNvYWBEo9Q4qiZTx3_CM-24" value="Informa os dados citados na descrição do caso" style="text;strokeColor=none;fillColor=none;align=left;verticalAlign=middle;spacingLeft=4;spacingRight=4;overflow=hidden;points=[[0,0.5],[1,0.5]];portConstraint=eastwest;rotatable=0;whiteSpace=wrap;html=1;" parent="aNvYWBEo9Q4qiZTx3_CM-23" vertex="1">
          <mxGeometry y="30" width="130" height="70" as="geometry" />
        </mxCell>
        <mxCell id="aNvYWBEo9Q4qiZTx3_CM-27" value="Resposta do Sistena" style="swimlane;fontStyle=0;childLayout=stackLayout;horizontal=1;startSize=30;horizontalStack=0;resizeParent=1;resizeParentMax=0;resizeLast=0;collapsible=1;marginBottom=0;whiteSpace=wrap;html=1;" parent="1" vertex="1">
          <mxGeometry x="610" y="290" width="150" height="100" as="geometry" />
        </mxCell>
        <mxCell id="aNvYWBEo9Q4qiZTx3_CM-28" value="Sistema responde realizando o cálculo da conta, mostrando os resultados na tela" style="text;strokeColor=none;fillColor=none;align=left;verticalAlign=middle;spacingLeft=4;spacingRight=4;overflow=hidden;points=[[0,0.5],[1,0.5]];portConstraint=eastwest;rotatable=0;whiteSpace=wrap;html=1;" parent="aNvYWBEo9Q4qiZTx3_CM-27" vertex="1">
          <mxGeometry y="30" width="150" height="70" as="geometry" />
        </mxCell>
        <mxCell id="aNvYWBEo9Q4qiZTx3_CM-31" value="Ação do Ator" style="swimlane;fontStyle=0;childLayout=stackLayout;horizontal=1;startSize=30;horizontalStack=0;resizeParent=1;resizeParentMax=0;resizeLast=0;collapsible=1;marginBottom=0;whiteSpace=wrap;html=1;" parent="1" vertex="1">
          <mxGeometry x="840" y="290" width="130" height="120" as="geometry">
            <mxRectangle x="470" y="70" width="60" height="30" as="alternateBounds" />
          </mxGeometry>
        </mxCell>
        <mxCell id="aNvYWBEo9Q4qiZTx3_CM-32" value="O usuário cria uma nova atividade em um dia e hora correspondentes no calendário." style="text;strokeColor=none;fillColor=none;align=left;verticalAlign=middle;spacingLeft=4;spacingRight=4;overflow=hidden;points=[[0,0.5],[1,0.5]];portConstraint=eastwest;rotatable=0;whiteSpace=wrap;html=1;" parent="aNvYWBEo9Q4qiZTx3_CM-31" vertex="1">
          <mxGeometry y="30" width="130" height="90" as="geometry" />
        </mxCell>
        <mxCell id="aNvYWBEo9Q4qiZTx3_CM-35" value="Resposta do Sistena" style="swimlane;fontStyle=0;childLayout=stackLayout;horizontal=1;startSize=30;horizontalStack=0;resizeParent=1;resizeParentMax=0;resizeLast=0;collapsible=1;marginBottom=0;whiteSpace=wrap;html=1;" parent="1" vertex="1">
          <mxGeometry x="970" y="290" width="150" height="120" as="geometry" />
        </mxCell>
        <mxCell id="aNvYWBEo9Q4qiZTx3_CM-36" value="O sistema salva essas informações no calendário." style="text;strokeColor=none;fillColor=none;align=left;verticalAlign=middle;spacingLeft=4;spacingRight=4;overflow=hidden;points=[[0,0.5],[1,0.5]];portConstraint=eastwest;rotatable=0;whiteSpace=wrap;html=1;" parent="aNvYWBEo9Q4qiZTx3_CM-35" vertex="1">
          <mxGeometry y="30" width="150" height="90" as="geometry" />
        </mxCell>
        <mxCell id="aNvYWBEo9Q4qiZTx3_CM-39" value="Ação do Ator" style="swimlane;fontStyle=0;childLayout=stackLayout;horizontal=1;startSize=30;horizontalStack=0;resizeParent=1;resizeParentMax=0;resizeLast=0;collapsible=1;marginBottom=0;whiteSpace=wrap;html=1;" parent="1" vertex="1">
          <mxGeometry x="120" y="760" width="130" height="150" as="geometry">
            <mxRectangle x="470" y="70" width="60" height="30" as="alternateBounds" />
          </mxGeometry>
        </mxCell>
        <mxCell id="aNvYWBEo9Q4qiZTx3_CM-40" value="O usuário remove uma atividade registrada anteriormente em uma data correspondente do calendário." style="text;strokeColor=none;fillColor=none;align=left;verticalAlign=middle;spacingLeft=4;spacingRight=4;overflow=hidden;points=[[0,0.5],[1,0.5]];portConstraint=eastwest;rotatable=0;whiteSpace=wrap;html=1;" parent="aNvYWBEo9Q4qiZTx3_CM-39" vertex="1">
          <mxGeometry y="30" width="130" height="120" as="geometry" />
        </mxCell>
        <mxCell id="aNvYWBEo9Q4qiZTx3_CM-43" value="Resposta do Sistena" style="swimlane;fontStyle=0;childLayout=stackLayout;horizontal=1;startSize=30;horizontalStack=0;resizeParent=1;resizeParentMax=0;resizeLast=0;collapsible=1;marginBottom=0;whiteSpace=wrap;html=1;" parent="1" vertex="1">
          <mxGeometry x="250" y="760" width="150" height="150" as="geometry" />
        </mxCell>
        <mxCell id="aNvYWBEo9Q4qiZTx3_CM-44" value="O sistema exclui os dados salvos da atividade na data correspondente" style="text;strokeColor=none;fillColor=none;align=left;verticalAlign=middle;spacingLeft=4;spacingRight=4;overflow=hidden;points=[[0,0.5],[1,0.5]];portConstraint=eastwest;rotatable=0;whiteSpace=wrap;html=1;" parent="aNvYWBEo9Q4qiZTx3_CM-43" vertex="1">
          <mxGeometry y="30" width="150" height="120" as="geometry" />
        </mxCell>
        <mxCell id="aNvYWBEo9Q4qiZTx3_CM-47" value="Ação do Ator" style="swimlane;fontStyle=0;childLayout=stackLayout;horizontal=1;startSize=30;horizontalStack=0;resizeParent=1;resizeParentMax=0;resizeLast=0;collapsible=1;marginBottom=0;whiteSpace=wrap;html=1;" parent="1" vertex="1">
          <mxGeometry x="480" y="760" width="130" height="130" as="geometry">
            <mxRectangle x="470" y="70" width="60" height="30" as="alternateBounds" />
          </mxGeometry>
        </mxCell>
        <mxCell id="aNvYWBEo9Q4qiZTx3_CM-48" value="O usuário inicia a edição das informações de uma atividade registrada previamente no calendário." style="text;strokeColor=none;fillColor=none;align=left;verticalAlign=middle;spacingLeft=4;spacingRight=4;overflow=hidden;points=[[0,0.5],[1,0.5]];portConstraint=eastwest;rotatable=0;whiteSpace=wrap;html=1;" parent="aNvYWBEo9Q4qiZTx3_CM-47" vertex="1">
          <mxGeometry y="30" width="130" height="100" as="geometry" />
        </mxCell>
        <mxCell id="aNvYWBEo9Q4qiZTx3_CM-51" value="Resposta do Sistena" style="swimlane;fontStyle=0;childLayout=stackLayout;horizontal=1;startSize=30;horizontalStack=0;resizeParent=1;resizeParentMax=0;resizeLast=0;collapsible=1;marginBottom=0;whiteSpace=wrap;html=1;" parent="1" vertex="1">
          <mxGeometry x="610" y="760" width="150" height="130" as="geometry" />
        </mxCell>
        <mxCell id="aNvYWBEo9Q4qiZTx3_CM-52" value="As alterações feitas pelo usuário são salvas na mesma atividade." style="text;strokeColor=none;fillColor=none;align=left;verticalAlign=middle;spacingLeft=4;spacingRight=4;overflow=hidden;points=[[0,0.5],[1,0.5]];portConstraint=eastwest;rotatable=0;whiteSpace=wrap;html=1;" parent="aNvYWBEo9Q4qiZTx3_CM-51" vertex="1">
          <mxGeometry y="30" width="150" height="100" as="geometry" />
        </mxCell>
        <mxCell id="aNvYWBEo9Q4qiZTx3_CM-55" value="Ação do Ator" style="swimlane;fontStyle=0;childLayout=stackLayout;horizontal=1;startSize=30;horizontalStack=0;resizeParent=1;resizeParentMax=0;resizeLast=0;collapsible=1;marginBottom=0;whiteSpace=wrap;html=1;" parent="1" vertex="1">
          <mxGeometry x="840" y="760" width="130" height="120" as="geometry">
            <mxRectangle x="470" y="70" width="60" height="30" as="alternateBounds" />
          </mxGeometry>
        </mxCell>
        <mxCell id="aNvYWBEo9Q4qiZTx3_CM-56" value="As contas de valor fixo são adicionadas pelo usuário, juntamente da data de vencimento" style="text;strokeColor=none;fillColor=none;align=left;verticalAlign=middle;spacingLeft=4;spacingRight=4;overflow=hidden;points=[[0,0.5],[1,0.5]];portConstraint=eastwest;rotatable=0;whiteSpace=wrap;html=1;" parent="aNvYWBEo9Q4qiZTx3_CM-55" vertex="1">
          <mxGeometry y="30" width="130" height="90" as="geometry" />
        </mxCell>
        <mxCell id="aNvYWBEo9Q4qiZTx3_CM-59" value="Resposta do Sistena" style="swimlane;fontStyle=0;childLayout=stackLayout;horizontal=1;startSize=30;horizontalStack=0;resizeParent=1;resizeParentMax=0;resizeLast=0;collapsible=1;marginBottom=0;whiteSpace=wrap;html=1;" parent="1" vertex="1">
          <mxGeometry x="970" y="760" width="150" height="120" as="geometry" />
        </mxCell>
        <mxCell id="aNvYWBEo9Q4qiZTx3_CM-60" value="O sistema registra esses valores juntamente das demais contas." style="text;strokeColor=none;fillColor=none;align=left;verticalAlign=middle;spacingLeft=4;spacingRight=4;overflow=hidden;points=[[0,0.5],[1,0.5]];portConstraint=eastwest;rotatable=0;whiteSpace=wrap;html=1;" parent="aNvYWBEo9Q4qiZTx3_CM-59" vertex="1">
          <mxGeometry y="30" width="150" height="90" as="geometry" />
        </mxCell>
        <mxCell id="aNvYWBEo9Q4qiZTx3_CM-63" value="Ação do Ator" style="swimlane;fontStyle=0;childLayout=stackLayout;horizontal=1;startSize=30;horizontalStack=0;resizeParent=1;resizeParentMax=0;resizeLast=0;collapsible=1;marginBottom=0;whiteSpace=wrap;html=1;" parent="1" vertex="1">
          <mxGeometry x="120" y="1190" width="130" height="130" as="geometry">
            <mxRectangle x="470" y="70" width="60" height="30" as="alternateBounds" />
          </mxGeometry>
        </mxCell>
        <mxCell id="aNvYWBEo9Q4qiZTx3_CM-64" value="O usuário abre uma conta registrada previamente e edita suas informações." style="text;strokeColor=none;fillColor=none;align=left;verticalAlign=middle;spacingLeft=4;spacingRight=4;overflow=hidden;points=[[0,0.5],[1,0.5]];portConstraint=eastwest;rotatable=0;whiteSpace=wrap;html=1;" parent="aNvYWBEo9Q4qiZTx3_CM-63" vertex="1">
          <mxGeometry y="30" width="130" height="100" as="geometry" />
        </mxCell>
        <mxCell id="aNvYWBEo9Q4qiZTx3_CM-67" value="Resposta do Sistena" style="swimlane;fontStyle=0;childLayout=stackLayout;horizontal=1;startSize=30;horizontalStack=0;resizeParent=1;resizeParentMax=0;resizeLast=0;collapsible=1;marginBottom=0;whiteSpace=wrap;html=1;" parent="1" vertex="1">
          <mxGeometry x="250" y="1190" width="150" height="130" as="geometry" />
        </mxCell>
        <mxCell id="aNvYWBEo9Q4qiZTx3_CM-68" value="O sistema registra as edições de informação feitas pelo usuário e as registra novamente na conta." style="text;strokeColor=none;fillColor=none;align=left;verticalAlign=middle;spacingLeft=4;spacingRight=4;overflow=hidden;points=[[0,0.5],[1,0.5]];portConstraint=eastwest;rotatable=0;whiteSpace=wrap;html=1;" parent="aNvYWBEo9Q4qiZTx3_CM-67" vertex="1">
          <mxGeometry y="30" width="150" height="100" as="geometry" />
        </mxCell>
        <mxCell id="9GgNR1Z67VRa7iDUR14--2" value="Caso de uso:&lt;br&gt;Excluir Contas Existente&lt;div&gt;&lt;br/&gt;&lt;/div&gt;" style="swimlane;fontStyle=0;align=center;verticalAlign=top;childLayout=stackLayout;horizontal=1;startSize=55;horizontalStack=0;resizeParent=1;resizeParentMax=0;resizeLast=0;collapsible=0;marginBottom=0;html=1;whiteSpace=wrap;" parent="1" vertex="1">
          <mxGeometry x="480" y="950" width="280" height="190" as="geometry" />
        </mxCell>
        <mxCell id="9GgNR1Z67VRa7iDUR14--3" value="&lt;span style=&quot;&quot;&gt;Atores: Usuario&lt;/span&gt;" style="text;html=1;strokeColor=none;fillColor=none;align=left;verticalAlign=middle;spacingLeft=4;spacingRight=4;overflow=hidden;rotatable=0;points=[[0,0.5],[1,0.5]];portConstraint=eastwest;whiteSpace=wrap;" parent="9GgNR1Z67VRa7iDUR14--2" vertex="1">
          <mxGeometry y="55" width="280" height="20" as="geometry" />
        </mxCell>
        <mxCell id="9GgNR1Z67VRa7iDUR14--4" value="Tipo: Primario" style="text;html=1;strokeColor=none;fillColor=none;align=left;verticalAlign=middle;spacingLeft=4;spacingRight=4;overflow=hidden;rotatable=0;points=[[0,0.5],[1,0.5]];portConstraint=eastwest;whiteSpace=wrap;" parent="9GgNR1Z67VRa7iDUR14--2" vertex="1">
          <mxGeometry y="75" width="280" height="20" as="geometry" />
        </mxCell>
        <mxCell id="9GgNR1Z67VRa7iDUR14--5" value="" style="line;strokeWidth=1;fillColor=none;align=left;verticalAlign=middle;spacingTop=-1;spacingLeft=3;spacingRight=3;rotatable=0;labelPosition=right;points=[];portConstraint=eastwest;" parent="9GgNR1Z67VRa7iDUR14--2" vertex="1">
          <mxGeometry y="95" width="280" height="8" as="geometry" />
        </mxCell>
        <mxCell id="9GgNR1Z67VRa7iDUR14--6" value="Descrição: A conta especificada é excluída e registrada como tal." style="text;html=1;strokeColor=none;fillColor=none;align=left;verticalAlign=middle;spacingLeft=4;spacingRight=4;overflow=hidden;rotatable=0;points=[[0,0.5],[1,0.5]];portConstraint=eastwest;whiteSpace=wrap;" parent="9GgNR1Z67VRa7iDUR14--2" vertex="1">
          <mxGeometry y="103" width="280" height="87" as="geometry" />
        </mxCell>
      </root>
    </mxGraphModel>
  </diagram>
</mxfile>
